<svg width="600" height="200" xmlns="http://www.w3.org/2000/svg" xmlns:svg="http://www.w3.org/2000/svg" text-rendering="optimizeLegibility">
  <link xmlns="http://www.w3.org/1999/xhtml" href='http://fonts.googleapis.com/css?family=Patua+One' rel='stylesheet' type='text/css' />
  <style>
    text {
      font: 18px 'Patua One', sans-serif;
      text-rendering: optimizeLegibility;
      -webkit-font-smoothing: antialiased;
      -moz-osx-font-smoothing: grayscale;
    }
  </style>
  <g>
    <title>Layer 1</title>
    <!-- Middle -->
    <line fill="none" stroke="#329d56" stroke-width="7" x1="50" y1="100" x2="402" y2="100"/>
    <line fill="none" stroke="#aaa" stroke-width="7" x1="402" y1="100" x2="452" y2="100"/>
    <circle fill="#ffffff" stroke="#329d56" stroke-width="7" cx="50" cy="100" r="10"/>

    <!-- Top -->
    <line fill="none" stroke="#329d56" stroke-width="7" x1="100" y1="100" x2="130" y2="70"/>
    <circle fill="#ffffff" stroke="#329d56" stroke-width="7" cx="135" cy="65" r="9"/>
    <text stroke="#000000" stroke-width="0" x="135" y="40" text-anchor="middle" >1A</text>

    <line fill="none" stroke="#329d56" stroke-width="7" x1="150" y1="100" x2="180" y2="70"/>
    <circle fill="#ffffff" stroke="#329d56" stroke-width="7" cx="185" cy="65" r="9"/>
    <text stroke="#000000" stroke-width="0" x="185" y="40" text-anchor="middle">1B</text>

    <line fill="none" stroke="#329d56" stroke-width="7" x1="200" y1="100" x2="230" y2="70"/>
    <circle fill="#ffffff" stroke="#329d56" stroke-width="7" cx="235" cy="65" r="9"/>
    <text stroke="#000000" stroke-width="0" x="235" y="40" text-anchor="middle">2A</text>

    <line fill="none" stroke="#329d56" stroke-width="7" x1="250" y1="100" x2="280" y2="70"/>
    <circle fill="#ffffff" stroke="#329d56" stroke-width="7" cx="285" cy="65" r="9"/>
    <text stroke="#000000" stroke-width="0" x="285" y="40" text-anchor="middle">2B</text>

    <line fill="none" stroke="#329d56" stroke-width="7" x1="300" y1="100" x2="330" y2="70"/>
    <circle fill="#ffffff" stroke="#329d56" stroke-width="7" cx="335" cy="65" r="9"/>
    <text stroke="#000000" stroke-width="0" x="335" y="40" text-anchor="middle">3A</text>

    <line fill="none" stroke="#329d56" stroke-width="7" x1="350" y1="100" x2="380" y2="70"/>
    <circle fill="#ffffff" stroke="#329d56" stroke-width="7" cx="385" cy="65" r="9"/>
    <text stroke="#000000" stroke-width="0" x="385" y="40" text-anchor="middle">3B</text>

    <line fill="none" stroke="#329d56" stroke-width="7" x1="400" y1="100" x2="430" y2="70"/>
    <circle fill="#ffffff" stroke="#333" stroke-width="7" cx="435" cy="65" r="9"/>
    <text stroke="#000000" stroke-width="0" x="435" y="40" text-anchor="middle">4A</text>

    <line fill="none" stroke="#aaa" stroke-width="7" x1="450" y1="100" x2="480" y2="70"/>
    <circle fill="#ffffff" stroke="#aaa" stroke-width="7" cx="485" cy="65" r="9"/>
    <text stroke="#000000" stroke-width="0" x="485" y="40" text-anchor="middle">4B</text>

    <!-- Bottom -->
    <line fill="none" stroke="#329d56" stroke-width="7" x1="125" y1="100" x2="155" y2="130"/>
    <circle fill="#ffffff" stroke="#329d56" stroke-width="7" cx="160" cy="135" r="9"/>
    <text stroke="#000000" stroke-width="0" x="160" y="170" text-anchor="middle">WT 1</text>

    <line fill="none" stroke="#329d56" stroke-width="7" x1="175" y1="100" x2="205" y2="130"/>
    <circle fill="#ffffff" stroke="#329d56" stroke-width="7" cx="210" cy="135" r="9"/>
    <text stroke="#000000" stroke-width="0" x="210" y="170" text-anchor="middle">WT 2</text>

    <line fill="none" stroke="#329d56" stroke-width="7" x1="225" y1="100" x2="255" y2="130"/>
    <circle fill="#ffffff" stroke="#329d56" stroke-width="7" cx="260" cy="135" r="9"/>
    <text stroke="#000000" stroke-width="0" x="260" y="170" text-anchor="middle">WT 3</text>

    <line fill="none" stroke="#329d56" stroke-width="7" x1="275" y1="100" x2="305" y2="130"/>
    <circle fill="#ffffff" stroke="#329d56" stroke-width="7" cx="310" cy="135" r="9"/>
    <text stroke="#000000" stroke-width="0" x="310" y="170" text-anchor="middle">WT 4</text>

    <line fill="none" stroke="#329d56" stroke-width="7" x1="325" y1="100" x2="355" y2="130"/>
    <circle fill="#ffffff" stroke="#329d56" stroke-width="7" cx="360" cy="135" r="9"/>
    <text stroke="#000000" stroke-width="0" x="360" y="170" text-anchor="middle">WT 5</text>

    <line fill="none" stroke="#aaa" stroke-width="7" x1="425" y1="100" x2="455" y2="130"/>
    <circle fill="#ffffff" stroke="#aaa" stroke-width="7" cx="460" cy="135" r="9"/>
    <text stroke="#000000" stroke-width="0" x="460" y="170" text-anchor="middle">WT 6</text>

  </g>
</svg>